<svg width="17" height="16" viewBox="0 0 17 16" fill="none" xmlns="http://www.w3.org/2000/svg">
<path d="M7.33342 13.2499C8.81256 13.2496 10.2491 12.7792 11.4142 11.9136L15.0776 15.3938L16.2559 14.2743L12.5926 10.7942C13.5042 9.68715 13.9997 8.32214 14.0001 6.91658C14.0001 3.42454 11.0092 0.583252 7.33342 0.583252C3.65758 0.583252 0.666748 3.42454 0.666748 6.91658C0.666748 10.4086 3.65758 13.2499 7.33342 13.2499ZM7.33342 2.16659C10.0909 2.16659 12.3334 4.29696 12.3334 6.91658C12.3334 9.53621 10.0909 11.6666 7.33342 11.6666C4.57591 11.6666 2.33341 9.53621 2.33341 6.91658C2.33341 4.29696 4.57591 2.16659 7.33342 2.16659Z" fill="#111321"/>
</svg>
